<mxfile host="app.diagrams.net" modified="2024-04-09T05:29:00.770Z" agent="Mozilla/5.0 (Windows NT 10.0; Win64; x64) AppleWebKit/537.36 (KHTML, like Gecko) Chrome/123.0.0.0 Safari/537.36" etag="hKCF5eNZC9aMyWQrsLdo" version="24.2.2" type="github">
  <diagram name="第 1 页" id="VNkkd_tfc1M3FQApVaIb">
    <mxGraphModel dx="2160" dy="632" grid="1" gridSize="10" guides="1" tooltips="1" connect="1" arrows="1" fold="1" page="1" pageScale="1" pageWidth="1169" pageHeight="827" math="0" shadow="0">
      <root>
        <mxCell id="0" />
        <mxCell id="1" parent="0" />
        <mxCell id="QYmviw4EbrusmVKCDtCU-6" style="edgeStyle=orthogonalEdgeStyle;rounded=0;orthogonalLoop=1;jettySize=auto;html=1;" edge="1" parent="1" source="QYmviw4EbrusmVKCDtCU-1" target="QYmviw4EbrusmVKCDtCU-4">
          <mxGeometry relative="1" as="geometry" />
        </mxCell>
        <mxCell id="QYmviw4EbrusmVKCDtCU-1" value="" style="points=[[0.145,0.145,0],[0.5,0,0],[0.855,0.145,0],[1,0.5,0],[0.855,0.855,0],[0.5,1,0],[0.145,0.855,0],[0,0.5,0]];shape=mxgraph.bpmn.event;html=1;verticalLabelPosition=bottom;labelBackgroundColor=#ffffff;verticalAlign=top;align=center;perimeter=ellipsePerimeter;outlineConnect=0;aspect=fixed;outline=standard;symbol=general;" vertex="1" parent="1">
          <mxGeometry x="-430" y="470" width="50" height="50" as="geometry" />
        </mxCell>
        <mxCell id="QYmviw4EbrusmVKCDtCU-2" value="" style="points=[[0.145,0.145,0],[0.5,0,0],[0.855,0.145,0],[1,0.5,0],[0.855,0.855,0],[0.5,1,0],[0.145,0.855,0],[0,0.5,0]];shape=mxgraph.bpmn.event;html=1;verticalLabelPosition=bottom;labelBackgroundColor=#ffffff;verticalAlign=top;align=center;perimeter=ellipsePerimeter;outlineConnect=0;aspect=fixed;outline=end;symbol=terminate2;" vertex="1" parent="1">
          <mxGeometry x="450" y="470" width="50" height="50" as="geometry" />
        </mxCell>
        <mxCell id="QYmviw4EbrusmVKCDtCU-3" value="&lt;div&gt;&lt;br&gt;&lt;/div&gt;&lt;div&gt;&lt;br&gt;&lt;/div&gt;&lt;div&gt;&lt;span style=&quot;background-color: initial;&quot;&gt;调用Lisflood模型&lt;/span&gt;&lt;br&gt;&lt;/div&gt;" style="points=[[0.25,0,0],[0.5,0,0],[0.75,0,0],[1,0.25,0],[1,0.5,0],[1,0.75,0],[0.75,1,0],[0.5,1,0],[0.25,1,0],[0,0.75,0],[0,0.5,0],[0,0.25,0]];shape=mxgraph.bpmn.task;whiteSpace=wrap;rectStyle=rounded;size=10;html=1;container=1;expand=0;collapsible=0;bpmnShapeType=call;verticalAlign=top;align=center;spacingLeft=5;" vertex="1" parent="1">
          <mxGeometry x="100" y="457.5" width="100" height="75" as="geometry" />
        </mxCell>
        <mxCell id="QYmviw4EbrusmVKCDtCU-7" style="edgeStyle=orthogonalEdgeStyle;rounded=0;orthogonalLoop=1;jettySize=auto;html=1;entryX=0;entryY=0.5;entryDx=0;entryDy=0;entryPerimeter=0;" edge="1" parent="1" source="QYmviw4EbrusmVKCDtCU-4" target="QYmviw4EbrusmVKCDtCU-13">
          <mxGeometry relative="1" as="geometry">
            <mxPoint x="-100" y="495" as="targetPoint" />
          </mxGeometry>
        </mxCell>
        <mxCell id="QYmviw4EbrusmVKCDtCU-4" value="SWMM获取溢流量" style="points=[[0.25,0,0],[0.5,0,0],[0.75,0,0],[1,0.25,0],[1,0.5,0],[1,0.75,0],[0.75,1,0],[0.5,1,0],[0.25,1,0],[0,0.75,0],[0,0.5,0],[0,0.25,0]];shape=mxgraph.bpmn.task;whiteSpace=wrap;rectStyle=rounded;size=10;html=1;container=1;expand=0;collapsible=0;taskMarker=user;" vertex="1" parent="1">
          <mxGeometry x="-300" y="455" width="120" height="80" as="geometry" />
        </mxCell>
        <mxCell id="QYmviw4EbrusmVKCDtCU-9" style="edgeStyle=orthogonalEdgeStyle;rounded=0;orthogonalLoop=1;jettySize=auto;html=1;entryX=0;entryY=0.5;entryDx=0;entryDy=0;entryPerimeter=0;" edge="1" parent="1" source="QYmviw4EbrusmVKCDtCU-13" target="QYmviw4EbrusmVKCDtCU-3">
          <mxGeometry relative="1" as="geometry">
            <mxPoint x="20" y="495" as="sourcePoint" />
          </mxGeometry>
        </mxCell>
        <mxCell id="QYmviw4EbrusmVKCDtCU-13" value="SWMM结果数据处理" style="points=[[0.25,0,0],[0.5,0,0],[0.75,0,0],[1,0.25,0],[1,0.5,0],[1,0.75,0],[0.75,1,0],[0.5,1,0],[0.25,1,0],[0,0.75,0],[0,0.5,0],[0,0.25,0]];shape=mxgraph.bpmn.task;whiteSpace=wrap;rectStyle=rounded;size=10;html=1;container=1;expand=0;collapsible=0;taskMarker=service;" vertex="1" parent="1">
          <mxGeometry x="-100" y="455" width="120" height="80" as="geometry" />
        </mxCell>
        <mxCell id="QYmviw4EbrusmVKCDtCU-14" value="Lisflood结果数据转&lt;div&gt;可视化所需CSV数据&lt;/div&gt;" style="points=[[0.25,0,0],[0.5,0,0],[0.75,0,0],[1,0.25,0],[1,0.5,0],[1,0.75,0],[0.75,1,0],[0.5,1,0],[0.25,1,0],[0,0.75,0],[0,0.5,0],[0,0.25,0]];shape=mxgraph.bpmn.task;whiteSpace=wrap;rectStyle=rounded;size=10;html=1;container=1;expand=0;collapsible=0;taskMarker=service;" vertex="1" parent="1">
          <mxGeometry x="264" y="455" width="120" height="80" as="geometry" />
        </mxCell>
        <mxCell id="QYmviw4EbrusmVKCDtCU-15" style="edgeStyle=orthogonalEdgeStyle;rounded=0;orthogonalLoop=1;jettySize=auto;html=1;entryX=0;entryY=0.5;entryDx=0;entryDy=0;entryPerimeter=0;" edge="1" parent="1" source="QYmviw4EbrusmVKCDtCU-3" target="QYmviw4EbrusmVKCDtCU-14">
          <mxGeometry relative="1" as="geometry" />
        </mxCell>
        <mxCell id="QYmviw4EbrusmVKCDtCU-16" style="edgeStyle=orthogonalEdgeStyle;rounded=0;orthogonalLoop=1;jettySize=auto;html=1;entryX=0;entryY=0.5;entryDx=0;entryDy=0;entryPerimeter=0;" edge="1" parent="1" source="QYmviw4EbrusmVKCDtCU-14" target="QYmviw4EbrusmVKCDtCU-2">
          <mxGeometry relative="1" as="geometry" />
        </mxCell>
        <mxCell id="QYmviw4EbrusmVKCDtCU-17" value="&lt;b&gt;Task1:&lt;/b&gt;&lt;div&gt;&lt;b&gt;输入INP、&lt;/b&gt;&lt;b style=&quot;background-color: initial;&quot;&gt;输出Excel&lt;/b&gt;&lt;/div&gt;" style="text;html=1;align=center;verticalAlign=middle;whiteSpace=wrap;rounded=0;" vertex="1" parent="1">
          <mxGeometry x="-322.5" y="552.5" width="165" height="30" as="geometry" />
        </mxCell>
        <mxCell id="QYmviw4EbrusmVKCDtCU-18" value="&lt;b&gt;Task2:&lt;/b&gt;&lt;div&gt;&lt;b&gt;输入INP和Excel（上一任务节点）、&lt;/b&gt;&lt;b style=&quot;background-color: initial;&quot;&gt;输出至指定bdy、bci文件&lt;/b&gt;&lt;/div&gt;" style="text;html=1;align=center;verticalAlign=middle;whiteSpace=wrap;rounded=0;" vertex="1" parent="1">
          <mxGeometry x="-130" y="552.5" width="202.5" height="30" as="geometry" />
        </mxCell>
        <mxCell id="QYmviw4EbrusmVKCDtCU-21" style="edgeStyle=orthogonalEdgeStyle;rounded=0;orthogonalLoop=1;jettySize=auto;html=1;" edge="1" parent="1" source="QYmviw4EbrusmVKCDtCU-20">
          <mxGeometry relative="1" as="geometry">
            <mxPoint x="150" y="327.5" as="targetPoint" />
          </mxGeometry>
        </mxCell>
        <mxCell id="QYmviw4EbrusmVKCDtCU-20" value="" style="shape=crossbar;whiteSpace=wrap;html=1;rounded=1;" vertex="1" parent="1">
          <mxGeometry x="90" y="412.5" width="120" height="20" as="geometry" />
        </mxCell>
        <mxCell id="QYmviw4EbrusmVKCDtCU-22" value="" style="rounded=0;whiteSpace=wrap;html=1;" vertex="1" parent="1">
          <mxGeometry x="40" y="192.5" width="200" height="130" as="geometry" />
        </mxCell>
        <mxCell id="QYmviw4EbrusmVKCDtCU-28" style="edgeStyle=orthogonalEdgeStyle;rounded=0;orthogonalLoop=1;jettySize=auto;html=1;" edge="1" parent="1" source="QYmviw4EbrusmVKCDtCU-23" target="QYmviw4EbrusmVKCDtCU-26">
          <mxGeometry relative="1" as="geometry" />
        </mxCell>
        <mxCell id="QYmviw4EbrusmVKCDtCU-23" value="bdy" style="rounded=0;whiteSpace=wrap;html=1;fillColor=#d5e8d4;strokeColor=#82b366;" vertex="1" parent="1">
          <mxGeometry x="60" y="212.5" width="50" height="20" as="geometry" />
        </mxCell>
        <mxCell id="QYmviw4EbrusmVKCDtCU-29" style="edgeStyle=orthogonalEdgeStyle;rounded=0;orthogonalLoop=1;jettySize=auto;html=1;entryX=0;entryY=0.5;entryDx=0;entryDy=0;" edge="1" parent="1" source="QYmviw4EbrusmVKCDtCU-24" target="QYmviw4EbrusmVKCDtCU-26">
          <mxGeometry relative="1" as="geometry" />
        </mxCell>
        <mxCell id="QYmviw4EbrusmVKCDtCU-24" value="bci" style="rounded=0;whiteSpace=wrap;html=1;fillColor=#d5e8d4;strokeColor=#82b366;" vertex="1" parent="1">
          <mxGeometry x="60" y="245" width="50" height="20" as="geometry" />
        </mxCell>
        <mxCell id="QYmviw4EbrusmVKCDtCU-30" style="edgeStyle=orthogonalEdgeStyle;rounded=0;orthogonalLoop=1;jettySize=auto;html=1;entryX=0.5;entryY=1;entryDx=0;entryDy=0;" edge="1" parent="1" source="QYmviw4EbrusmVKCDtCU-25" target="QYmviw4EbrusmVKCDtCU-26">
          <mxGeometry relative="1" as="geometry" />
        </mxCell>
        <mxCell id="QYmviw4EbrusmVKCDtCU-25" value="dem" style="rounded=0;whiteSpace=wrap;html=1;" vertex="1" parent="1">
          <mxGeometry x="60" y="282.5" width="50" height="20" as="geometry" />
        </mxCell>
        <mxCell id="QYmviw4EbrusmVKCDtCU-26" value="par" style="rounded=0;whiteSpace=wrap;html=1;" vertex="1" parent="1">
          <mxGeometry x="140" y="242.5" width="70" height="25" as="geometry" />
        </mxCell>
        <mxCell id="QYmviw4EbrusmVKCDtCU-31" value="" style="shape=image;verticalLabelPosition=bottom;labelBackgroundColor=default;verticalAlign=top;aspect=fixed;imageAspect=0;image=data:image/png,iVBORw0KGgoAAAANSUhEUgAAAV4AAADmCAYAAACdxe22AAAgAElEQVR4Ae2deVAUZ97H3/9mLSkthoIapIACLDQWKikxohXPaK3RxGg0iRpLdI25TMTgEXOaQ1TWaDT6Si4lsq67cUGN4Q2aqKsEYyKK5yqCYHQHI57RgIrX962emZ7umemenoOB6eFLFTVP93P9ns/TfGmebp7v/5w7dw78IgESIAESaD4C/0PhbT7Y7IkESIAEBAJBKry3cTB3AkZnfYNazhMJkAAJhBgBJ+E1I3eIAX/6059gaBOO2NThyMo/gj/sg76FwgxrvlBG/DaMyMMFocydIkwJC0OHF4tww1LnGBb0DEPYwJU4Y29DSFzD3iVjkNqhvbUvUxZKHPIbsH1OKpKH5uKk7HzJ7FipT0MGNt+SZTIJQHl+phUTDgmQQDARUBTesXk1MP+3GgeLPsCQqI6Ytdsqo+IP9qDF+2E2m6XvC3/grjAqQXi79kf/btPwgyCKlcvQt39/9HEW3svr8aShF97eccraRu0V3PSAys2rtdby+xahD4VXgdh91F+S5mX/Z2MQl5yBzWaFojxFAiTQYgQUhXeK/VbyHn6ck4CEuaW2AK13VMO+UPlJFoQ3/AXMyuyGrJ2NOJP7Z4yelYUezsJ7JhcDVYTzh0yjdFfrXE/E5KY+GiqwPmsYunUwIjKpDzIW70bdfbGiDj4bKlHw+iikJZoQndwb47N/gNnyW80W++WfsXhcT8SbYtBzwudY83oKYmc7/r0glLxetgD9koYj95j4SxM4veoR9Mw5BuAS1o40oPv8g8JvS3z7fCLe2OMhm2tHsTZrBB5KjkZ0cjrGZ2/HOTnfK3ux9Nk+6BgVhraRiUh/ZiF218na1hqfrCiTJBCqBDSEFzjxUTrC7H+reiC8hmexfuMr6D53E/JGDkde4ZuIEwX0cA7SjEYYw9uhjaEt2gtp4TtxDkRpv3HFesdWkzcWBrGeM31V4b2LAx+kImHMMuw6Xo3KfRswrYcJEwsuOrcQpMd3cXhBT0QMeANFh6pQVfYvvNIjEqPyxV90d7D3rS4IH/gOio9U4viOpZjYPcZVeGsLMS4uAsM+LsfVO9JQb//fS4icVox7KMe80b3Qe8omNOIs/nfQUKz2aDG9EdtnxCPxqSUo3l+BqvJCZKZFY1LhZXsnx3J6ImrEEuypOotfj5fikwld8NCCMlu+1vjszTBBAiFNwCfhbdMu3CqYFuE0YeYOGyPhjtcwEuvMRXiuVxp6Ds+FecdrCBcF9NZlnK2pQU3pfPQ2jMbnFTWoEY5P16HBCfOtzVN8EN4qLOltwqzdUmPVKwYg/NVt0omgTv2KFQPaYuoWafH6t205yMo/jHuWuAWRNCCjsN42invY8Vq0q/CeXI/pE8di+IMxiH90GQ6KN73HF6PHsC/w242NmPz8W5j79MeoRilmdc7ETvldqxeMDnzQFYmy2+Uf58Shy9xSNCq2oTU+xUo8SQIhR8An4R246CerYAqiWVODOlEHLML7Z3xprsee3CxkF50Ftr7iKqCqd6wSX9+E9xDeTzEgrL3tTtpoRHi7NjBM2QzZjZ/USdClhPhNUFg5sEV6AjlpYcj8QQp8//vKSw2WErdrsGJIO4zIs93O1hdgXKe3UVaxFM8u2o68Z6Zjx5V/YHT/T3BaatJt6sKepcjo1wWxkVbG4WEGmLJ22us0/JKNXsZIpAwei2lvLsG63adtD1qFIlrjszfDBAmENAGPhLfdK1ttEDxZahgChyXg4mnNLLxxyNxou5O2/WKoOS+9lxHcs6klTF4KLwBBmOPm/Ggb9n6803kiCr+ZjskbfseO157Cmu9zkPZCEW57AuZOKWYmxOLplaU4UW1lXDSzi4PwCs3cqD2I4r+vQnbWU0iNiMQTX4nvtGiNz5MgWIYE9E9AQ3itD9ekPyWDRHjPfopBig/nhKWGdnj5O+kP3Rt11aiova6TmTqNT/oLSw3SOx7monl44YsDni013NiKrNTx+Ju4JIz7KJkdh+S3f7aN/wLyRjyMmTMz8O4+oHrFGMx962X0+et/XPg0Xj2PSzec1h9qV2OoYSwK7L/H7qP09QSZ8N5DY/01NMhU/NfcwTCM3wDrH0Va43MJgydIICQJKAqvX6+TGfy5423E1d9kD9f6ZGOf5bW13/C7pKVAwxZMbt8J0zdV2l5pq8N1yw+79eFa1OD3UHykGqfKNyMrPUL2cCrY5/AuDmWnwWh7uFZZ9k+8lBqJ0XYlvYOf3nwARuHh2tEqy8O1jNRY2RqvGasfC0f35/Px88lTOPp9DoZHJ+C1HeJaEPDvrO7o1WsK1tYBjVueR98+D8vWjG18rmzCxCgDwtI/QoUc2e0SZMWZ8HjOdhyvrkTZpnkYn5ooE956FE5qj5Spedhz4gz+e6oMn41PQOLcUlglXGt88s6YJoHQJaAovNZ/oGiPmO5DMWPtYe/+gcIv4RX+FFX4Bw1DCrIPySfhNirWv4i+iUa0MRhgMPTFyhpbfv0JrJsxFCnRRpg69sGEhdtRa30yJW8geNP1Ffh69hPokRiF6I7C61pOr5Nd3IOcZ9IQHyW8TvYZ8uZ2lQkvcNe8Hdnj0pEYYUR01yGYvroc12SjFV4pM0TNwC7h3OGF6GZ4AB+WywoIyes7MbO7CYmj1+JXp6zzuxbh6Z6JiIpKQr+peSj4MF0mvMCdM0V4c1Qa4o1tERaVhPSxCxxfJ9Man1N/PCSBUCTgJLyhOMTQHpPbh2uhPXSOjgR0S4DCq9upswZO4dX5BDL8VkmgyYW3obEBpdW7IHwKX8F2HGqzTOENtRnleFoDgSYV3ov1FyyiG6yfrWFCOUYSIIHgJ9CkwhvMd7riHXjwTwkjJAESCHUCTSq8oQ6L4yMBEiCBpiBA4W0KimyDBEiABLwgQOH1AhaLkgAJkEBTEKDwNgVFtkECJEACXhCg8HoBi0VJgARIoCkIUHibgiLbIAESIAEvCFB4vYDFoiRAAiTQFARCU3j3vIHYTu9gf1MQYhskQAIk0MQEKLxNDJTNkQAJkIAWARfh/eWdTkh8LRefjk9DB1MCej6zEKUXZM1oufhquMxqtl9/An/PegypCSbEdOmP55b/BAerSnf5JbNhMihsKzkiD/IhyEYTdElNPn7yD7oBMyASaIUEFIU3KuVZLN95HFXHvsf8oSYkZm63mVFqu/i6d5kFBGFRb/8Oyj98EJGD56H4SBUqSr/A+ORYvFB01TY1GvkNF3BasPspmIYOSZnYIlr/1P4OuUN6MM+zez7+8w/msTM2EmgtBBSFN3xasV2o7vyQCWP3+ThiIaLt4uveZdYqvOrtW61hnv9Wsps4vPBBxNhtg7XybdOm4zVeQXjV+fjPv7Vc2BwnCQQzAUXhlTzWANTtw9d/34NzllFYHSLcufi6d5m1Cq/79h1dds/kDpG5BLuaJTrm21DrXHjd83HvoqzFP5gvRsZGAq2FgLbwOpAQhE/bxVfdZVZBeF3ap/A6CK8LH//4OzTHAxIggRYh4KXwarn4arnMagmv1lKCVr6N4U9vIk6nr5NZHq69sUflYvCfv0rDPE0CJNCMBLwUXi0XXy2XWS3hvYvy+T0sD9e2yh6uvWh/uKaVbyNXsxJ92z6CBaUVqKmpwek6qxtGM3L1uSv3wus/f58DY0USIIEmI+Cl8ALQcPHVcpl1LyzW9i2vk8Wb0OGBfpii9jqZWr4FzRWUZD+BLlFtITgmm7J2NhmwQDfkCR93Lspa/AMdP9snARLQJuAivNpVWIIESIAESMAfAhRef+ixLgmQAAn4QMBFeIPNFbip4/GBEauQAAmQQJMScBBeUeSC1SXY37ialBwbIwESIAEfCTgIb/nZMohuvKIIh9Kxj4xYjQRIgASalICD8DZpy2yMBEiABEhAkQCFVxELT5IACZBA4AhQeAPHli2TAAmQgCIBCq8iFp4kARIggcARoPAGji1bJgESIAFFAhReRSw8SQIkQAKBI+Cj8N7GwdwJGJ31DWoDFxtbJgESIIGQJKApvPvfT0Hs7BKnwTdg+5xUJA/NxUmnnKA41PFG6C3Jr2R2rGVTIWFjIYMhA5tvqUTThHyVry+VfsXTTdi/2CQ/SaA5CfgovM0Zog998QfTB2jAzau1MJvNMO9bhD4UXp8YshIJeELAVXgv7kHO2J6IN8WiV8aXWPtGV4c73h8yjdJd0cCVOOPUi2VbQzcuxVr5wraTdBkOlMtzDZb1NeCFojv2WTuUneq6beaZXAxUEt6mcHHWuL5w7SjWZo3AQ8nRiE5Ox/js7Th33xauJ/27q28fNRMk0LIEnIS3ESWzkxEx+D1sPVqF4zuWYlJqnIPw3rhittwV1eSNhUFFeNVdhK0boavna7gIQyOfLsNw7/Lsp/D6zVfr+mrE9hnxSHxqCYr3V6CqvBCZadGYVHjZ+lOi2b9G/Zb9WWPvJGAn4CS8p7C0T1tILr/3sOO1aAfhFWve2jxFVXjVXXKtwquer2Xto5Vvi07HSw3CXwTqfPx1GfZTeMXJ95mv59eX2NWBD7rCxYPOi/4V64uN85MEWoiAk/C6uviqPfxwJ7wOPygOLsUK1j8O+a79O7oIa+XbKHrxg9lC3FW7dXGgcOHjj8twSwuv6/w5X18X9ixFRr8uiI00wmg0IjzM4LoU4mZ+PaqvSp8ZJNA8BAIvvE7jcBEWh3zXH8xWL7wufPxxGQ5y4b1TipkJsXh6ZSlOVNdY/PKKZnbxXHg9re/AlAck0PwEnIRX+FPW/6UGhztepzG5F16tpQStfFtndBm2U/81dzAM4zeg3nLmEtaONGDMuku2/Hv4d1YMUrMP2ctbEmc/xSClh2tiKZ/5alxftasx1DAWBX+IHd1H6esJrsKr1r+n9cXm+UkCLUTASXidH34swYRuHWRrvI24+pvs4VqfbOwTXj8y/4bfG60jcC+sCksNDgPXchHWyrc1Rpdh7DlxBv89VYbPxicgcW4pxBcDqlYORHjvWdhyuBLHd36Exzt0xuulNxxmAQ1bMLl9J0zfVGl9vcxch+u3ZUV85qtxfd0uQVacCY/nbMfx6kqUbZqH8amJrsKr1r+n9WVDYZIEWoKAk/ACsLzuk4b4qBj0GJeLL+fI/4FCWAow2F8nE160t75snwLxpsk/4aXLsBY/f12ecasGG+eOxIMJJsSkPIJpX5bjd5cr7zYq1r+IvolGtDEYYDD0xcoaeSE/XJzdXl/A+V2L8HTPRERFJaHf1DwUfJjuKrxQ79+z+vKxME0CzU/AVXibPwb2GCoEDucgzWh9KCY8GJO+X8J3d0NlkBwHCfhPgMLrP0O2IBK4dRlna6wPxWocPs/b1pjFgvwkgdZNwEV4Q9FrrbR6l91LrnVPN0dPAiQQDAQchFcUXX/dfIO1fjAAZwwkQAIk4CC8dBnmBUECJEACgSfgILyB7449kAAJkAAJUHh5DZAACZBAMxOg8DYzcHZHAiRAAhReXgMkQAIk0MwEKLzNDJzdkQAJkACFl9cACZAACTQzAR+Ft6Vdhlu6/2aeJXZHAiQQUgR8FN4Auwy72ejaSj/A/bfYFJcgy6S0CdGTWH/FFtTlMqx6aTC6xkYhtusgvLBiL8RNHi0lfj+MvMxhSI03ocMDDyMjZyfOyfdJ0MpvsbGzYxJoPQR8FN4AA9IU3gD332LNC8Kbgjd3WLfeFBx/fy14ER0SZ6HUsi3jFXzzXBw6jc9FyYkqHN/5CUYnxGDqFpsnGW5g18zOiBm+AFuPVKKi9CtMTonAk/lm24i08lts4OyYBFoVAVfhvbIXS5/tg45RYWgbmYj0ZxZid53ExK3L8KFspAyci5yMTogf9DF+2TUPabHJGJl7FPLtXKXWnFIeuMj63X9DBdZnDUO3DkZEJvVBxuLdqBM3q3UKp/kPj+LzSZn412mx55vY+kosUt7dh3vCqXslmJsyFLmVYj5wcH53RGf923ZC2LazI97dJw3I/MUwtMkohHXHXa18qV2mSIAEAkfARXjdu9QCbl2GBeGNfRb5h/dj8Z+j0e/9bTi+ORPJsbNQ6skYNF1k/e3/Lg58kIqEMcuw63g1KvdtwLQeJkwsuOhJdM1f5tomTIzogZxjkpA6BnEHJbMT8cC8Mttp4Y45HctkwlxfmAHDiDxcsJTQyndsnUckQAKBIeAivD/OiUOXuaWwGUqo9qpodikIb1oOTgAQTAwzCuuBaxvwtOE5FMnXGVVbtWV4sNTgW//aLr1aoTVnft26MQjrtxwOe5DLArh7Jh8jY/pjxUnL/TAAUVgvo/C5Lhi0/CiUhVctX9Y4kyRAAgEj4CK8Db9ko5cxEimDx2Lam0uwbvdp25+pjjF4J3xTUHTHsb7boyYXXrF/q4NGWHtpk+7wdm1gmLIZ3oTnNvYmyzQjd0hbDP9SXJ91avjaPrz3cByGrTou+yUpCi9w5/olXG2EivCq5Tv1wUMSIIGAEHARXqGXG7UHUfz3VcjOegqpEZF44qszLp3rV3i1XXpdBtsSJ04uRa92o/EPpVWQxip8OToBqZnbbEsIYoCS8IpnlO94xVxnYZbOM0UCJBA4Ak7Cew+N9dfQIHsS5uhSKwUSUOFVc5GVuodv/QtLDe3w8nfSQsqNumpU1F6XtRwMyXvY/353REwqxDXncO6fR9G0bkgam48a2TxZiyk/PDOM+9rmAKGV79wZj0mABAJBwEl461E4qT1SpuapuNRquAyrrvGKf+p7OAQ1F1n427/14VrU4PdQfKQap8o3Iys9AqPsr1t5GF+gizWWYmZSNF7Z2uDU000c/OsARKVmYstJ6ZUz8/lrtrdGpNfFth2pQsWer/CXruF4fM1ZWzta+U7d8ZAESCAgBJyEF7hzpghvjkpDvLEtwqKSkD52gex1MusaqeguLH4aDDaX4aYSXlUX2Sbov/4E1s0YipRoI0wd+2DCwu2oFZ9NBQSx9402bH0F0QlZ+FG6Mbc1Iqz7KvyDRfpHsL/I8PthrMkchu7xkYhIeAhjP9wKs/zBpla+9+GyBgmQgJcEXITXy/reFacLrXe8WJoESCAkCTSv8NKFNiQvIg6KBEjAOwLNK7zexcbSJEACJBCSBCi8ITmtHBQJkEAwE6DwBvPsMDYSIIGQJEDhDclp5aBIgASCmQCFN5hnh7GRAAmEJAEKb0hOKwdFAiQQzAQovME8O4yNBEggJAlQeENyWjkoEiCBYCZA4Q3m2WFsJEACIUlARXj9dfFt6fohOVccFAmQQIgQUBFef118NeprbnSuUV8FfsnsWEgb92Rg8y2VglqnNePTaMDf+hrNBzb7NszFc9E3ygBDp3ew37kzf12K/a3vHA+PSUCHBFSEN8AjCZAw3bxaC8GZ17xvEfoYKLzez2IDDn86BkkxA/HWvAzEuQivtK2ksouxVo/+1tdqn/kkoA8CLsLr1sUX1m0JJ68oQOaAJJhiUjB89haclW076La+vy7CAtNrR7E2awQeSo5GdHI6xmdvxzlnL8gzuRjoi/B6EB/cuTB7Ut+ty7GV78TlBZg1uBNMHTpjyIwNqHbZHjJQF1cNvpg2E9/U3AR+eQeJLsKrvJG65GKsFZe/9bXaZz4J6IOAi/C6dRG2CW/yYx+isLwSFaWrMCY+AhmFl+2jdVvfXxdhNGL7jHgkPrUExfsrUFVeiMy0aEyS9W8JxFfh9SA+ty7MmvW1XI6twps09F0U7K9ExU9rMLFTO4zKr7XzDWziHu6JexMrCq+WtZBWdP7W12qf+SSgDwIuwiuGrWitYxPekWvrxGIonZuAjm/ttR+LCeX6tlwPlhrc1hc7AXDgg65IfGOP7AwAX4VXbMVNfB65MKvW13I5tgrv42vOiZHgyKIeCH9lK0Q9tGcEOuFWeH11KRaF19f6gR402yeB5iHgk/BOkT21OpSdClPWTpdo3QqnqjBJzajVv7BnKTL6dUFspNUpODzM4Np/AIXXIxdm1fFZHTTUXY6twptRWG8HcSZ3CAwZhfD1OaG9IW8TboXXV5diUXh9re/tIFieBIKTgL6E904pZibE4umVpThRXYOamhoUzezSrMIrTKOmC7Nb4XXncqwf4RUvZ0cXY/Gs2qckvGIJ7+qLtfhJAvom0DLC66uLcO1qDDWMRcEfIvT7KH09wVV4z36KQb48XBObVY3PQxdm1fpaLsfKSw3GV7fB+fmhGGrAPhXveJUfjkkuxlI0jVfP49IN56g9ry+1xBQJhB4BJ+HVcPG1rfGqLzVo1bcB9NVF+HYJsuJMeDxnO45XV6Js0zyMT010Fd6GLZjcvhOmb6q0vl5mrsN1Fyt0N5OpGp+WC7PW+LRcjq3CmzxsHgoOVOKk8HCtc3M+XGvEFbP1L4majZmIS8rElhrh+LzNHl56HUzZxdg2/iubMDHKgLD0j1DhgNnD+g51eEACoUfASXita5DiPyGIn3YXYU3h1aovAryCkuwn0CWqreUfHqQ1Yu3653ctwtM9ExEVlYR+U/NQ8GG6q/DiNirWv4i+iUa0MRhgMPTFyhqxb08+1eLTcmEW21avD7cux1bhnbRyI+YMsb1OlrkBp5rxdbJlfRVcjA1TUHTHNjZPXIqv78TM7iYkjl6LX0Uk4qcn9cWy/CSBECXgJLwhOkpxWEHvcmwT3sIGMWJ+kgAJhCCB1iW8Qe9ybBVe+VsNIXjNcUgk0OoJtC7h9WC6GxobUFq9C8Kn8NW8x2Z88ogBj64qVu3fgyGwCAmQQJAToPDKJuhi/QWL6AbrpyxUJkmABHRMgMIrm7yWu9P17M5aFiqTJEACOiZA4dXx5DF0EiABfRKg8Opz3hg1CZCAjglQeHU8eQydBEhAnwQovPqcN0ZNAiSgYwIUXh1PHkMnARLQJwEKrz7njVGTAAnomECQCq+/LsU6nhGGTgIkEPIEglR4fXMZts+W6n649hI6TdxCYYbrJjbTimXD0XLx1cqXNaWY9Le+YqM8SQKti0CQCq+fkxCywnsf9ZfMtq0uzdj/2RjEJWdgs1nkJW27qOwCrJUvtqP26W99tXZ5ngRaFwFH4T2UjZSBc5GT0Qnxgz7GL7vmIS02GSNzj8K+na2Wy687F16BrUa+W5di27aUqi7Hnrj8hsj8Xi9bgH5Jw5F77IZsRMobjUsuwFr5sqYUk/7WV2yUJ0mg1RFwFd7YZ5F/eD8W/zka/d7fhuObM5EcOwulFjTaLr9uXXgBaOW7dSm2Ca+qy7Gmy2+IzG9tIcbFRWDYx+W4Ku6TaxmalrWOVr4WH3/ra7XPfBJoHQRchTctBycA7H8/BZbtCa9twNOG51B0VxmIs8uvlguvVr7Yi7LZpXXbRE2X45BdarDRObke0yeOxfAHYxD/6DIctN/0isKo5uKrlS/SV/v0t75auzxPAq2LgIfCKzkQaLn8arnwauWL+N0Jr7r1kK12qAuvCOl2DVYMaYcRebW2M6Iwqrn4auWLDat9+ltfrV2eJ4HWRcA74fXQ5VfLhVcrX5gCCq9nF6Lwl0ncnB9thSVhFGs7uvhq5Yu11D79ra/WLs+TQOsi4J3warr8arnwauVL8P0SXlWXX6l9XaZubEVW6nj8zf4Ww32UzI5D8ts/24aj/PBLcgHWypeo0CVYYsEUCTQ1Ae+EV9PlV8uFVytfy6XYusarudSg6hLc1Piauz0zVj8Wju7P5+Pnk6dw9PscDI9OwGs76m2BSK97KbsAa+XbmqFLcHNPLPtrZQS8E14AWi6/d84U4c1RaYg3tkVYVBLSxy7A7jqJqvt84Y7M9R8EPHc5Fvtx4/IrFtHp513zdmSPS0dihBHRXYdg+upyXJOPRcvFVytfaIsuwXKiTJNAkxNwFN4mb54NkgAJkAAJOBOg8DoT4TEJkAAJBJiAi/A2r6uuZ15jTemFFmCebJ4ESIAENAk4CK8ousHqsutvXJo0WIAESIAEmoGAg/CWny2DIL7ClyjCoXTcDDzZBQmQAAloEnAQXs3SLEACJEACJOA3AQqv3wjZAAmQAAl4R4DC6x0vliYBEiABvwlQeP1GyAZIgARIwDsCFF7veLE0CZAACfhNgMLrN0I2QAIkQALeEQhS4aXLsHfTyNIkQAJ6IhCkwkuXYeWLiC7Dylx4lgT0RSBIhddPiCHrQEGXYT+vDFYngaAg4Cq8Gi7AcOcyfHwx0iKm4v+s//xmGeD9Ax+gS+SL2HrTNt6GCqzPGoZuHYyITOqDjMW7UXdfYkGXYYmFuxRdht3RYR4JBDcBF+F17wKs5TJ8BPNTTZj+/S37qI/lPATjlM2wbtV9Fwc+SEXCmGXYdbwalfs2YFoPEyYWXLSXp8uwHYV6gi7D6myYQwI6IOAivJ66AItjc3QZvo+yeSmIy9oJq+t4DZb3a4eMwt9txauwpLcJs3aLtYHqFQMQ/uo26YQt5c76hy7DdBl2uWB4ggR0RMBFeLVcgLVchu/ufQtJSa9jr2AHb/4CQ8KewtdXRCJWh4mw9kYYjdbv8HZtYJiy2SbUYjmaXUok3KToMuwGDrNIIHgJuAivEKqqC7AnLsN3fkRWfGe8V3YfdflPImxUPqSFBEF445C5sQY1NbLv83+4EHJ3x6vpuRayD9dcMIEuw65MeIYEgp2Ak/BquABrugwLw72N7ZkxeHBhKQomtMNjq+2WuACEpYZ2ePm7RjuXG3XVqKi9bj8WE34JL12GRYwwfzEMdBm242CCBIKCgJPwargAa7oMW8d0s3gaogY+gSc6PILP/isfp/XhWtTg91B8pBqnyjcjKz0Co/JFcabLsJyWa5ouw65MeIYE9EfASXgB9y7A2i7DFgT1RZgSYYCh33LUODOpP4F1M4YiJdoIU8c+mLBwO2rviYXoMiySUPuky7AaGZ4nAf0QcBFe/YTOSEmABEhAnwQovPqcN0ZNAiSgYwIuwhuKXmtyl2IdzxVDJwESCBECDsIriq6/br7BWj9E5ozDIAES0DkBB+Gly7DOZ5PhkwAJ6IKAg9kdf6UAAA7GSURBVPDqImIGSQIkQAI6J0Dh1fkEMnwSIAH9EaDw6m/OGDEJkIDOCVB4dT6BDJ8ESEB/BCi8+pszRkwCJKBzAhRenU8gwycBEtAfgSAVXroM6+9SYsQkQAKeElAR3mvYu2QMUju0x5/+9CcYTFko8bRFSzl/6/vpMuxVrCzsQOD3w8jLHIbUeBM6PPAwMnJ24pywqb2nXxr1t71qvaaE60r8lu+v7Gk3LEcCeiagLLyX1+NJQy+8veMUzGYzzLVXIHpVejRYf+t71AkLNT2BG9g1szNihi/A1iOVqCj9CpNTIvCkfdtOrR6163/3clv0/nCP9boSri2zGZcaZG6nWl0wnwRCgICy8J7JxUBDBjZLnpW2oZqRO8SAicsLMGtwJ5g6dMaQGRtQLe1rbi2nWh/45Z1OSHwtF5+OT0MHUwJ6PrMQpRckku5dhgE0VKLg9VFISzQhOrk3xmf/ALM3d2RSV0y5EBC25eyId/dJQihspN4moxA3XMoqndCuX/SCAY+sOq1UmedIoNUQcBTewzlIE7zQwtuhjaEt2tt80YyJc1BqQWIV3qSh76JgfyUqflqDiZ3aYVR+rRWYZn2r8EalPIvlO4+j6tj3mD/UhMTM7RAd4d27DN/F4QU9ETHgDRQdqkJV2b/wSo9I2UbqrWbeAjTQEmSZ0rGsUmq+vjADhhF5kP1ulDJdUlr17+Kb5wwYnJWDqX2TEd+pJ8bMK4bZ6ozq0hpPkECoEnAU3luXcVbwQiudj96G0fi8wuaLdrrOJoxW4X18zTk7jyOLeiD8la2w7GWuWd8qvOHTiiHepN75IRPG7vNxxN6iNaFs/fMrVgxoi6lbpFvx37blICv/sLV/pzZ46C0BUTgvo/C5Lhi0/Ch8E161+o3YONmAtinPYe3Px3B4x0o8lRiJiQWXvA2U5UlA1wQchVcciupSgVV4MwrrxZI4kzsEhoxCSFIIQLW+banhjT32+qjbh6//vgeSlFuzlIVX+FPWhNnePemT+mJKg4AovMCd65dwtRE+Cq9a/fu4XHMIJ2ql6+dQdio6zNylERezSSC0CLS88KrwpPCqgAnoaUl4xW58u+MVa2sLt+UX93Pf2P8CkmoyRQKhS8An4XVeajC+ug3S4xgv73hV2CoL72l80l9YapDesTAXzcMLXxzgUoMKR+9OKz8ck1yKpdYar57HpRsOsw5Aq/7vOPztOvx4Rqp3eOGDiJm1W2qYKRJoBQR8Et7kYfNQcKASJ4WHa51lD9dEYN4sNYh1LJ9aLsN3cSg7DUbbw7XKsn/ipdRIjP6b6FLs0BgPvCYgvQ627UgVKvZ8hb90Dcfja846tnRlEyZGGRCW/hEqHHK06t/BT28+gISnV+DHimpUlH6B8ckxeKHoqkMrPCCBUCfgk/BOWrkRc4bYXifL3IBT3r5OJl/jdSAs3DEZ7C/Wiy/YGwwpyD5kK1hfga9nP4EeiVGI7pjO18kc+DXBwe+HsSZzGLrHRyIi4SGM/XCr6+t613diZncTEkevxa/OXWrV/+Mo1k5/FN1ioxDTpT+mfFyKC9INsHNrPCaBkCSgLLyqQ7U+XJtUKL78pVqQGSRAAiRAAioEfBJe+VsNKu3yNAmQAAmQgAoBF+EVDS+FT+HL8diMTx4x4NFVxZbzrvnO5Zv/WGWcPE0CJEACQUPAQXhFkQ1Wl2CtuIKGKgMhARIgATcEHIRX7y7DbsbJLBIgARIIGgIOwhs0UTEQEiABEghhAhTeEJ5cDo0ESCA4CVB4g3NeGBUJkEAIE6DwhvDkcmgkQALBSYDCG5zzwqhIgARCmACFN4Qnl0MjARIITgIBEl5/XYL9rR+csBmVpwQ4/56SYjl9EnASXuteDP67vmq5BGu5ECvXL5kda99Ax6DoCafPSWi6qG+hMMN1k6FpxbIeLpdh1UuD0TU2CrFdB+GFFXuh5P9wZctUJDycg6POGyDJmnJNNtf149ozz5CAnggESHg1EPjoQnzzaq3VnXbfIvSh8CpAvo/6S1bnXsG9d/9nYxCXnIHN9l0zr+Cb5+LQaXwuSk5U4fjOTzA6IQZTt1x2bKuxHPMe6oclx7xSXQBNJbyO4fCIBEKNgLLwrtqEmYOTYYrpgmGzv8GZ27Jha7j8aroEC0252a/X3/poqMD6rGHo1sGIyKQ+yFi8G3V62nZQgy8u/4zF43oi3hSDnhM+x5rXUxCr4IV0vWwB+iUNR+4xmT/wvRLMTRmKXJmZ5cH53RGd9W/ZBANnV4/Gox//B/JpdyigemAT3kBfP6r9M4ME9EFAUXg7PfYhCssrbRtVGzH2n3W20Wi7/Lp1CfbAhdhtfZGpqnDfxYEPUpEwZhl2Ha9G5b4NmNbDhIkFF8WaQf6pxfcO9r7VBeED30HxkUoc37EUE7vHuApvbSHGxUVg2MfluOrWwfcOSmYn4oF5ZRKX699j2kMD8OTwVMSakjBwWj6Oe7wLqFV4A3b9SFEyRQK6JqAovKPyRaEFBBfhqBnbbYP03OVX0brHAxdikaZifTFTVXirsKS3CXInmeoVAxD+6jaxZpB/avE9i/8dZIC0Lec97Hgt2lV4T67H9IljMfzBGMQ/ugwHZTe9cgB3z+RjZEx/rDhp8Yi2ZFV9MgDJYz9H+YU/cPVUEV7rGYYH55d7aK1kFd6AXT/y4JkmAR0TUBRe+cM1ixnhlM2w3jh57vLrm3BKJH2rb3WwCGtvhNFo/Q5v1wYGe/xS+8GZ0uJ7AjlpYcj8QYp+//vKSw2WErdrsGJIO4zIq5UqiKlr+/Dew3EYtuo4pJXc/Xin88NYUS0WAv7YOBlhqQtwTDrlJuW6xhuQ68dNBMwiAT0QCEHhjUPmxhrU1Mi+z/+hh7mwmUW6s6/3UngBCMIcN+dHx/E3VuHL0QlIzdyGC/Kc3/IwzPmhZdl7SI6ZhVJ5OdU0hVcVDTNIQEZAUXjV/1T03OXXtztWKTK39c9+ikHOAmGpKiw1tMPL30n3cDfqqlFRe11qOKhTWnw1lhpubEVW6nhI3p/3UTI7Dslv/yyN+v55FE3rhqSx+ahxfnp28W94wtADOUelpYeL659G2wErXLzVlF2GtZYatMYnhel2/qViTJGALgkoCm/i0HkoLK+yPVwLxzP/ENd8tVx+tVyCbYxU12g9rN+wBZPbd8L0TZXW18vMdbhuERHrw7Wowe+h+Eg1TpVvRlZ6BEbl29+nCvJJ0uJrdek1Cg/XjlZZHq5lpMbK1njNWP1YOLo/n4+fT57C0e9zMDw6Aa/tqLeN+yYO/nUAolIzseWk9NqZ+fw12xsMtch/MgrRg9/FlkMV+M+uTzG+s8Dvv47cVF2GrcIb8OvHMRoekYDuCCgK76TlG5A5oCOiOjyAR2duxGn5nZFbl18PXIIFRKrC62F93EbF+hfRN9GINgYDDIa+WFljY19/AutmDEVKtBGmjn0wYeF21Eo3cME/QW75Ari4BznPpCE+Snid7DPkze0qE17grnk7sselIzHCiOiuQzB9dTmu2UdtFUbRvVn8NKR/BPENs/sX9+KTqYPwQLQRUR37YvLHP7q6AKu6DFvbD/j1Yx8PEySgTwJOwqvPQbTmqN0+XGvNYDh2EghiAhTeIJ4cT0Kj8HpCiWVIILgIuAivaHip7DLc/K7BTR1PcOH3PxoKr/8M2QIJNDcBB+EVRU7LzVev+c0Nl/2RAAmQgBIBB+HVu8twafUuuLtTVwLAcyRAAiTQ3AQchLe5O2d/JEACJNAaCVB4W+Osc8wkQAItSoDC26L42TkJkEBrJEDhbY2zzjGTAAm0KAEKb4viZ+ckQAKtkQCFtzXOOsdMAiTQogSCVHjpMtuiVwU7JwESCCgBJ+G1bnIi3whdq3ff/nOKLsNaXH3L15/LsG/Xj290WIsEgoVAywgvXYYDNP/6cxmm8AboUmCzQU1AWXjducQK2xKOFVxuY9Er40usfUO2LWHlMvRuOxLrxO17Adwvew8PmF7G9zdlHFS3hQToMlyJgtdHIS3RhOjk3hif/QPMd2Xs9O4y3BTXjwwHkySgRwKKwqvuEtuIktnJiBj8HrbaNuKelBon2w+2Bsv7tcGo/PN2Fgfnp8L08new6C5dhu1clBOh7jLs5/WjDI1nSUB3BBSFV9365xSW9mmL578VrXVcXW5Pr3oEbUfkwXrTexyL0iLx8nc2f3C6DGtcIKHuMuzn9aNBj9kkoBcCisIrf7im5RLrskZn/hyD2z6Gtb8BqFiKXpHPQ9RdOxQ3Sw1iGbeeW6r16TIs8rN86sBl2Kfrx2GQPCAB/RFoeuHFOXwxrC0eX1OLU5/0R+Tz38J2vyvRURVOqYjvwkuXYYli8LsMuwivJ9ePfIBMk4AOCSgKr/pSg+Di636pQWDw21dPoO2TC5A9NALPfysaLcro+Cu8dBm2wXRa6gl6l+Emun5klxKTJKBHAorCq+4S6/xwZAkmdOsge7hmQ1C3DiMjIxEZ9Rco6a662SVdhg9lp8E44A0UHapCZdk/8VJqJEbb/dr17jLcRNePHn/SGDMJyAgoCq9bl1jL60BWl9se43Lx5ZwUV+HFZfxtdBsY/7IJCve7dBmWTYBLMtRdhpvi+nGBxhMkoC8CTsLbVMGfxOL0cPxl0/WmapDtqBBwXSNVKair07x+dDVdDNZrAoERXuFthvCJoO56PR9eVwhJ4eX14/V1wAr6IuAivKLhpTvvMi1vs/VvdUX4s+sh3O82RXta/XmTr6/p0Y42FIW3YmkfhE8ssFw/2gRYggT0R8BBeEWR1KuLsFbc+pseRkwCJBCKBByEly7DoTjFHBMJkECwEXAQ3mALjvGQAAmQQCgSoPCG4qxyTCRAAkFNgMIb1NPD4EiABEKRAIU3FGeVYyIBEghqAhTeoJ4eBkcCJBCKBCi8oTirHBMJkEBQE6DwBvX0MDgSIIFQJEDhDcVZ5ZhIgASCmgCFN6inh8GRAAmEIgEKbyjOKsdEAiQQ1AQovEE9PQyOBEggFAlQeENxVjkmEiCBoCZA4Q3q6WFwJEACoUiAwhuKs8oxkQAJBDWB/weEPJRiGEiF5AAAAABJRU5ErkJggg==;" vertex="1" parent="1">
          <mxGeometry x="270" y="170" width="266.3" height="175" as="geometry" />
        </mxCell>
        <mxCell id="QYmviw4EbrusmVKCDtCU-33" value="" style="shape=singleArrow;whiteSpace=wrap;html=1;" vertex="1" parent="1">
          <mxGeometry x="220" y="237.5" width="50" height="35" as="geometry" />
        </mxCell>
        <mxCell id="QYmviw4EbrusmVKCDtCU-34" value="&lt;b&gt;Task3:（耗时长）&lt;/b&gt;&lt;div&gt;&lt;b&gt;输入par、&lt;/b&gt;&lt;b style=&quot;background-color: initial;&quot;&gt;输出wd文件&lt;/b&gt;&lt;/div&gt;" style="text;html=1;align=center;verticalAlign=middle;whiteSpace=wrap;rounded=0;" vertex="1" parent="1">
          <mxGeometry x="73.75" y="556.5" width="202.5" height="30" as="geometry" />
        </mxCell>
        <mxCell id="QYmviw4EbrusmVKCDtCU-35" value="&lt;b&gt;Task4:&lt;/b&gt;&lt;div&gt;&lt;b&gt;输入wd，输出CSV&lt;/b&gt;&lt;/div&gt;" style="text;html=1;align=center;verticalAlign=middle;whiteSpace=wrap;rounded=0;" vertex="1" parent="1">
          <mxGeometry x="222.75" y="556.5" width="202.5" height="30" as="geometry" />
        </mxCell>
        <mxCell id="QYmviw4EbrusmVKCDtCU-36" value="" style="shape=ext;double=1;rounded=0;whiteSpace=wrap;html=1;" vertex="1" parent="1">
          <mxGeometry x="-70" y="660" width="600" height="80" as="geometry" />
        </mxCell>
        <mxCell id="QYmviw4EbrusmVKCDtCU-37" value="&lt;b&gt;&lt;font style=&quot;font-size: 20px;&quot;&gt;任务队列&lt;/font&gt;&lt;/b&gt;" style="text;html=1;align=center;verticalAlign=middle;whiteSpace=wrap;rounded=0;" vertex="1" parent="1">
          <mxGeometry x="-60" y="685" width="60" height="30" as="geometry" />
        </mxCell>
        <mxCell id="QYmviw4EbrusmVKCDtCU-38" value="" style="rounded=1;whiteSpace=wrap;html=1;" vertex="1" parent="1">
          <mxGeometry x="20" y="675" width="100" height="50" as="geometry" />
        </mxCell>
        <mxCell id="QYmviw4EbrusmVKCDtCU-39" value="" style="rounded=1;whiteSpace=wrap;html=1;" vertex="1" parent="1">
          <mxGeometry x="140" y="675" width="100" height="50" as="geometry" />
        </mxCell>
        <mxCell id="QYmviw4EbrusmVKCDtCU-42" style="edgeStyle=orthogonalEdgeStyle;rounded=0;orthogonalLoop=1;jettySize=auto;html=1;" edge="1" parent="1" source="QYmviw4EbrusmVKCDtCU-40" target="QYmviw4EbrusmVKCDtCU-41">
          <mxGeometry relative="1" as="geometry" />
        </mxCell>
        <mxCell id="QYmviw4EbrusmVKCDtCU-43" value="&lt;b&gt;消息传递&lt;/b&gt;" style="edgeLabel;html=1;align=center;verticalAlign=middle;resizable=0;points=[];" vertex="1" connectable="0" parent="QYmviw4EbrusmVKCDtCU-42">
          <mxGeometry x="-0.4142" y="-1" relative="1" as="geometry">
            <mxPoint x="12" y="-1" as="offset" />
          </mxGeometry>
        </mxCell>
        <mxCell id="QYmviw4EbrusmVKCDtCU-40" value="&lt;b&gt;task3&lt;/b&gt;" style="rounded=1;whiteSpace=wrap;html=1;" vertex="1" parent="1">
          <mxGeometry x="250" y="675" width="100" height="50" as="geometry" />
        </mxCell>
        <mxCell id="QYmviw4EbrusmVKCDtCU-41" value="&lt;b&gt;task4&lt;/b&gt;" style="rounded=1;whiteSpace=wrap;html=1;" vertex="1" parent="1">
          <mxGeometry x="425" y="675" width="100" height="50" as="geometry" />
        </mxCell>
      </root>
    </mxGraphModel>
  </diagram>
</mxfile>
